<svg width="104" height="46" viewBox="0 0 104 46" fill="none" xmlns="http://www.w3.org/2000/svg">
<path d="M50.5529 29.6532C47.0124 29.4627 39.8499 32.3797 39.5231 45.5716M50.5529 29.6532C50.7467 29.6504 50.9373 29.6525 51.1248 29.6594M50.5529 29.6532L50.4495 45.5716M39.5231 45.5716H38.7529M39.5231 45.5716H50.4495M61.6643 45.5716C61.7443 40.3254 59.7271 29.9761 51.1248 29.6594M61.6643 45.5716H51.0898M61.6643 45.5716H62.3503M51.1248 29.6594L51.0898 45.5716M76.4027 45.5716C74.8569 41.5397 73.018 38.9406 71.7137 37.7349C69.4533 35.1498 64.2135 29.7511 61.3375 28.8369C58.4616 27.9226 56.4899 29.4355 55.8635 30.3063C59.6545 32.0042 61.5282 38.0886 61.9912 40.9185C63.5617 42.2916 65.0705 43.8722 66.5002 45.5716M76.4027 45.5716H66.5002M76.4027 45.5716H76.9936M24.2152 45.5716C24.6198 43.8955 27.2307 39.6811 28.575 37.6532C24.2531 38.2985 17.8639 42.2856 13.3247 45.5716M24.2152 45.5716H13.3247M24.2152 45.5716H24.8625M13.3247 45.5716H12.0852M12.0852 45.5716C17.7227 41.5662 26.1669 36.2063 29.3104 36.592C30.9172 34.8233 34.7517 30.8287 37.2354 29.0001C30.9548 27.7451 17.1002 29.4447 10.1113 45.5716H12.0852ZM24.8625 45.5716H34.563C36.1124 43.6474 37.657 42.093 39.1146 41.1634C39.5503 38.143 41.4349 31.743 45.4873 30.3063C44.2891 29.0001 40.9611 27.1715 37.2354 30.3063C33.5098 33.441 30.8355 36.1838 29.964 37.1634C28.5007 38.7176 26.5119 41.6073 24.8625 45.5716ZM38.7529 45.5716H35.7889C37.1652 43.9964 38.3136 42.9161 39.1146 42.3063C38.8478 42.6787 38.7531 43.9664 38.7529 45.5716ZM50.4495 45.5716H51.0898M62.3503 45.5716C62.3289 44.2561 62.2823 43.0616 62.2363 42.2247C63.3579 43.3061 64.4224 44.4274 65.4302 45.5716M62.3503 45.5716H65.4302M65.4302 45.5716H66.5002M76.9936 45.5716C76.1013 43.3687 74.2471 39.3681 72.6124 37.7349C74.6592 37.9727 80.3167 39.9021 88.0799 45.5716M76.9936 45.5716H88.0799M88.0799 45.5716H89.4351M89.4351 45.5716H91.3274C84.5749 30.0045 70.2107 28.0373 63.6252 29.0818C66.0436 30.3226 70.0252 34.66 71.7137 36.6736C77.4542 37.7358 84.8083 42.2529 89.4351 45.5716ZM24.1631 27.694C24.7078 27.3403 26.075 26.3389 27.1861 25.1634C27.5674 25.4083 28.6567 25.9634 29.964 26.2246C29.9912 26.6895 29.8986 27.7813 29.3104 28.4287C28.226 28.6192 25.9563 29.1307 25.5521 29.6532C25.2525 29.4899 24.5553 28.8695 24.1631 27.694ZM27.1861 24.1838C28.3027 24.9457 31.4346 26.3389 35.0295 25.8164C35.1929 24.9457 35.2256 22.7797 34.0491 21.0817C35.1657 20.9185 37.6113 19.596 38.461 15.6123C37.7529 14.932 35.2583 13.7021 30.9444 14.2245C30.0729 12.7824 27.66 9.78372 24.9801 9.32657C23.8636 10.0885 21.5813 12.4123 21.3853 15.6123C19.7512 15.6395 15.6825 16.445 12.4797 19.4491C13.2695 20.4831 15.6171 22.7797 18.6891 23.694C18.6346 25.0273 18.7218 27.9552 19.5061 29.0001C20.8133 28.8096 24.1795 27.5797 27.1861 24.1838ZM22.7742 22.143C21.8482 21.0817 19.3917 19.0572 16.9733 19.4491V18.3878C18.2929 18.3606 21.4639 18.9919 23.5912 21.7348C23.9725 21.4899 25.0128 20.9511 26.124 20.7552L24.9801 12.4286H26.124L26.8593 20.5919C27.2678 20.5375 28.4116 20.494 29.7189 20.7552C30.5904 19.313 32.8726 16.347 35.0295 16.0205L35.438 16.6735C34.2669 17.0545 31.647 18.4695 30.5359 21.0817C31.2712 21.381 32.9216 22.2246 33.6406 23.2042L33.1503 23.6123C32.3606 22.6872 29.9476 20.9674 26.6142 21.4899C23.2807 22.0123 21.3036 24.7008 20.7316 25.9797L19.9963 25.8164C20.3504 24.9457 21.4016 22.9919 22.7742 22.143ZM46.4678 29.6532C47.6933 29.0817 51.0921 28.2817 54.8831 29.6532C55.7546 27.9661 57.6446 24.543 58.2329 24.347C57.2524 24.211 55.2099 23.8899 54.8831 23.694L52.8405 25.4899C52.7861 24.8641 52.7098 23.4491 52.8405 22.796C52.3503 22.4967 51.2065 21.7511 50.5529 21.1634C50.1171 21.5715 49.0659 22.4695 48.3469 22.796C48.4559 23.4763 48.6084 24.9675 48.3469 25.4899L46.4678 23.694C45.5691 23.9117 43.6082 24.347 42.9546 24.347C43.9895 25.626 46.141 28.4777 46.4678 29.6532ZM50.5529 20.2654C49.6541 21.3266 46.6475 23.4654 41.8108 23.5307C41.4567 21.4899 41.0428 17.049 42.2193 15.6123C40.3674 15.2858 36.5818 13.4899 36.255 8.91841C37.1538 8.1565 40.1114 6.84493 44.752 7.69391C45.9231 5.6803 48.7227 1.52245 50.5529 1C51.5878 1.32654 54.2295 3.12247 56.5171 7.69391C58.2329 7.34017 62.3506 7.05717 65.0958 8.75514C64.9869 10.7415 63.6415 14.8939 59.1316 15.6123C59.5401 17.1905 60.161 20.9674 59.3767 23.4491C57.9878 23.7212 54.2785 23.4654 50.5529 20.2654ZM39.5231 10.7143L40.0133 10.0613C41.7018 10.4966 45.6508 12.5103 47.9384 17.0817C48.2108 17.0001 49.0496 16.8368 50.2261 16.8368V5.40818H51.1248V16.8368C51.615 16.8368 52.6935 16.8858 53.0856 17.0817C54.2839 15.0137 57.6609 10.7143 61.5826 10.0613V10.796C59.9214 11.2041 56.0759 13.098 53.9844 17.4082C55.0737 17.8164 57.5139 19.1878 58.5597 21.4083L57.9061 21.7348C57.2797 20.347 54.9484 17.5552 50.6346 17.4899C46.3207 17.4246 44.044 20.2926 43.4448 21.7348L42.7095 21.3266C43.5537 20.0749 45.6508 17.5225 47.2848 17.3266C46.3044 15.4218 43.3794 11.4327 39.5231 10.7143ZM74.1648 24.347C73.2933 25.0001 70.4228 26.1919 65.9129 25.7348C65.9401 24.8913 66.2397 22.845 67.2201 21.4083C65.8039 20.6463 62.9389 18.4695 62.8082 15.8572C63.3256 15.0681 65.5534 13.6368 70.3248 14.2245C71.4141 12.6191 74.1321 9.37555 76.289 9.24493C76.9699 9.57147 78.6747 11.3021 80.0473 15.6123C81.6813 15.6667 85.7011 16.5103 88.7077 19.4491C87.809 20.6463 85.3416 23.1715 82.6618 23.694C82.6073 25.2722 82.3513 28.5103 81.7631 28.8369C80.2379 28.5103 76.5831 27.1552 74.1648 24.347ZM75.2269 12.5103H75.9622C75.7988 14.8776 75.423 19.8572 75.2269 20.8368C75.7988 20.9457 77.1387 21.2776 77.9231 21.7348C78.8999 20.5919 81.5258 18.3225 84.2141 18.3878V19.1225C82.8796 19.2314 79.8839 19.9878 78.5767 22.143C79.312 22.7416 80.8807 24.3307 81.2728 25.8981H80.4558C79.8839 24.5919 77.9394 21.8654 74.7367 21.4083C71.534 20.9511 69.0448 22.5783 68.2005 23.4491L67.6286 23.0409C68.1733 22.5783 69.5404 21.5389 70.6516 21.0817C70.6516 20.3742 69.7038 18.4858 65.9129 16.5919L66.2397 15.8572C67.7375 16.5647 70.8803 18.5511 71.4686 20.8368C72.0405 20.6736 73.4294 20.396 74.4099 20.5919L75.2269 12.5103ZM71.4686 26.143C71.9043 26.0341 73.0209 25.6695 74.0014 25.0817C74.7639 25.8436 76.4197 27.4001 76.9426 27.5307C76.7248 28.0205 76.2237 29.0981 75.9622 29.4899C74.6277 29.1362 71.9098 28.4287 71.7137 28.4287C71.5176 28.4287 71.4686 26.9049 71.4686 26.143Z" stroke="#4388FF" stroke-opacity="0.4" stroke-width="0.5"/>
<path d="M59.2437 14.4872L57.6104 42.8348C58.2879 43.1857 59.9188 43.7277 61.0222 43.0889L62.2563 14.4872M83.6349 14.4872L84.8327 43.0526C85.6433 43.2462 87.4823 43.5172 88.3535 43.0526L86.6838 14.4872M57.6103 17.8628H52.6739V20.0043H93.1445V17.8628H57.6103ZM57.6103 17.8628V16.8828L59.0984 17.2821M62.1471 17.3184L63.4175 17.1007V17.7903M82.4009 17.8266V17.1007L83.7439 17.391M86.9014 17.3185L88.3533 16.9192V17.7903M49.2624 9.69617C51.6337 10.4342 59.7157 11.8449 73.0729 11.5836C89.7692 11.2569 93.5441 10.8214 96.593 9.69617M49.1895 9.80515L49.8428 11.5111L51.6213 12.0192C57.1384 12.8613 68.2208 12.9749 73.0724 12.9265M73.0361 12.9265C79.9416 12.9146 94.2477 12.6036 96.2283 11.4555L96.6288 9.80502M96.3386 11.511L94.9956 12.9629H94.0519L94.3786 12.0918M49.8426 11.5835L50.7863 12.9265H51.8026L51.4033 11.9828M94.0156 13.0354C94.0156 13.3863 93.914 14.1969 93.5074 14.6325L86.5385 14.9954C86.1634 14.7051 85.0576 14.2986 83.6348 14.9954H74.2703C73.8105 14.7172 72.6152 14.3276 71.5118 14.9954H62.2924C61.6633 14.5962 60.151 14.0372 59.1347 14.9954L52.4198 14.6325C52.1536 14.3058 51.6576 13.5291 51.8028 13.0354M52.0933 14.0517L59.3163 14.4873C59.6551 14.0638 60.7101 13.471 62.22 14.4873H71.5845C72.008 14.1243 73.138 13.6162 74.2705 14.4873H83.5624C84.1673 14.1122 85.6458 13.5872 86.7202 14.4873L93.798 14.0517" stroke="#FF4C00" stroke-width="0.5"/>
<path d="M14.0234 37.358L13.3203 36.9869L12.9492 35.9127L13.2617 35.444L13.5352 35.2291L13.4766 34.2135C13.5547 33.9531 13.6133 33.6992 13.6523 33.4518L13.5938 33.0221L13.8672 28.1588C13.8281 27.4166 13.6979 26.707 13.4766 26.0299L13.2617 25.8541L13.2227 25.444L13.2617 25.1119C13.0924 24.9296 13.0273 24.7018 13.0664 24.4283C13.2357 24.0638 13.3724 23.7057 13.4766 23.3541L13.3789 22.983L13.5938 22.8658L13.8086 22.983L14.2773 22.9244C14.707 22.9895 15.1432 23.0677 15.5859 23.1588C16.0286 23.25 16.4844 23.2955 16.9531 23.2955C17.6042 23.3086 18.2422 23.2174 18.8672 23.0221C19.362 23.1393 19.8438 23.25 20.3125 23.3541L20.5273 23.8815C20.1367 24.1028 19.707 24.2526 19.2383 24.3307C18.7826 24.3958 18.3073 24.4414 17.8125 24.4674L16.8945 24.4283L16.582 24.526C16.3086 26.0104 16.2891 27.4882 16.5234 28.9596L16.4258 29.2916L16.4648 30.0338L16.3672 30.3073L16.4258 30.5221L16.3086 30.9518C16.2044 31.4466 16.1523 31.9088 16.1523 32.3385L16.0352 33.0807C16.1784 33.8619 16.237 34.6627 16.2109 35.483L16.0938 35.8541C16.237 35.9974 16.2891 36.1992 16.25 36.4596L16.0938 36.9283L15.7812 37.1432L15.5664 37.0846L14.9805 37.2018L14.7656 37.0846L14.4531 37.2604L14.1211 37.2018L14.0234 37.358ZM37.6758 43.6666C36.7773 43.5885 35.9375 43.3867 35.1562 43.0612C34.388 42.7487 33.6263 42.3645 32.8711 41.9088C32.3503 41.2057 31.8359 40.4961 31.3281 39.7799C31.1979 39.6106 31.0221 39.539 30.8008 39.5651C29.9154 40.138 29.0169 40.6979 28.1055 41.2448C27.207 41.7916 26.3151 42.332 25.4297 42.8658L25.332 43.0807L24.9023 43.2369L24.6875 43.1198L24.375 43.2369L23.0469 41.694L22.9883 40.7955V40.483L23.2422 40.1119C23.7109 40.4635 24.2253 40.6393 24.7852 40.6393L26.0156 40.0533C26.1328 39.1549 26.1523 38.25 26.0742 37.3385C26.2174 36.5703 26.0742 35.9388 25.6445 35.444H25.8594C26.0677 35.2617 26.1589 35.0273 26.1328 34.7408L25.918 33.5299L25.4883 33.1002L25.918 32.7291L25.4883 31.9869L24.2188 33.0416L23.2031 34.1549C22.7734 34.6888 22.2591 35.0078 21.6602 35.1119L21.2305 34.858C20.8789 34.3893 20.4688 33.9987 20 33.6862C19.8307 33.0872 19.7266 32.4687 19.6875 31.8307L20.1172 31.6744L20.2148 31.8893L20.4883 32.0455L20.7422 32.4557L21.2305 32.6315C22.194 31.9544 23.0339 31.1731 23.75 30.2877C24.4792 29.4023 25.2148 28.5169 25.957 27.6315C26.4648 26.9934 26.9076 26.3424 27.2852 25.6783C27.6758 25.0013 27.9622 24.2721 28.1445 23.4908L28.0469 23.0221C28.9583 23.3086 29.7721 23.6992 30.4883 24.194L30.5859 24.5065L30.4297 24.8776L32.4023 26.2643C32.6888 26.6158 33.0404 26.9153 33.457 27.1627C33.8867 27.4101 34.2773 27.677 34.6289 27.9635L35.1172 28.0026L35.4883 28.3737C36.2695 28.7643 37.0638 29.1093 37.8711 29.4088C38.6914 29.7083 39.4596 30.1445 40.1758 30.7174L40.4297 31.1862L39.9609 31.8893C39.7135 32.1367 39.4271 32.2604 39.1016 32.2604L38.3594 32.1432L38.1445 32.2018C37.5065 32.0586 36.8945 31.8763 36.3086 31.6549C35.7227 31.4205 35.1628 31.1406 34.6289 30.8151C34.3815 30.9583 34.1862 31.1536 34.043 31.401C33.8346 32.1041 33.6589 32.8398 33.5156 33.608C33.3724 34.3632 33.1771 35.0989 32.9297 35.8151C33.5026 35.138 33.8216 34.3893 33.8867 33.569L34.1602 33.6276L34.4141 33.5299C34.9219 33.5299 35.3776 33.6731 35.7812 33.9596C36.1849 34.233 36.6211 34.4218 37.0898 34.526L37.1289 34.8971L36.9141 35.0729L36.6016 35.444C36.1458 35.444 35.7552 35.6002 35.4297 35.9127C35.1432 36.3424 34.8047 36.7265 34.4141 37.0651C34.0234 37.3906 33.6198 37.677 33.2031 37.9244H32.832V38.1979C33.7826 39.0442 34.8047 39.7278 35.8984 40.2487C37.0052 40.7565 38.125 41.2708 39.2578 41.7916L39.5898 42.4948L39.7461 42.651L39.4727 43.3932C39.043 43.5755 38.6003 43.6666 38.1445 43.6666H37.6758ZM28.418 38.9401L29.7852 38.2369L29.8438 38.0416L28.7305 36.5963L27.9883 37.026C27.9102 37.677 27.8581 38.3476 27.832 39.0377L28.0859 39.0963L28.418 38.9401ZM31.7188 37.1823C32.0312 37.1432 32.3112 36.9674 32.5586 36.6549L32.7148 36.2838L32.4609 36.4987C32.0312 36.4596 31.7122 36.3164 31.5039 36.069L31.2305 35.6393H30.957L30.4883 35.8541L31.5039 37.2408L31.7188 37.1823ZM30.957 34.5846C31.0742 34.194 31.1458 33.8033 31.1719 33.4127L30.957 33.3151C30.5013 33.4192 30.0391 33.5494 29.5703 33.7057C29.1146 33.8619 28.6719 34.0507 28.2422 34.2721L27.832 34.7408L27.9883 35.1705L28.6719 35.2682C29.4141 35.0208 30.1758 34.7929 30.957 34.5846ZM31.3281 31.8893C31.4453 31.6419 31.5039 31.375 31.5039 31.0885C31.2174 30.9843 30.9115 30.9453 30.5859 30.9713C30.0521 31.0494 29.5378 31.1666 29.043 31.3229C28.5482 31.4791 28.0339 31.6093 27.5 31.7135L27.4609 32.2604L27.6758 32.7291L27.9883 32.7877C28.5221 32.5664 29.0625 32.3776 29.6094 32.2213C30.1562 32.0651 30.7292 31.9544 31.3281 31.8893ZM28.9453 29.9166L29.043 29.5455C28.9388 28.9466 28.7435 28.3997 28.457 27.9049C28.0013 28.2565 27.6302 28.6536 27.3438 29.0963C27.0573 29.539 26.7773 29.9687 26.5039 30.3854L26.875 30.444L28.9453 29.9166ZM33.3594 29.5455C32.2786 28.2434 31.1263 27.0065 29.9023 25.8346L29.043 26.6744L28.9453 27.0455C29.5833 27.2669 30.2214 27.4622 30.8594 27.6315C30.9635 28.2825 30.8919 28.9205 30.6445 29.5455C30.7878 29.6497 30.9505 29.6823 31.1328 29.6432L31.7188 29.4479L31.8164 29.233L32.1875 29.1158C32.6172 29.194 33.0078 29.3372 33.3594 29.5455ZM57.5586 43.2369C56.8555 43.0286 56.1458 42.8528 55.4297 42.7096C54.7266 42.5664 54.0365 42.3515 53.3594 42.0651H50.2148C49.6159 42.1302 49.0299 42.2343 48.457 42.3776L48.0859 42.3385C47.6693 42.4427 47.2266 42.5273 46.7578 42.5924C46.1589 42.6705 45.6315 42.7812 45.1758 42.9244C44.2773 42.8463 43.5091 42.4687 42.8711 41.7916L42.832 41.5377L43.3008 41.4791L44.5312 41.694C44.987 41.5507 45.4688 41.4531 45.9766 41.401C46.4974 41.3489 46.9727 41.2187 47.4023 41.0104L47.4609 40.483C47.4609 39.7669 47.4023 39.0898 47.2852 38.4518C47.181 37.8138 46.901 37.2474 46.4453 36.7526L45.918 36.1862C46.582 36.3945 47.2266 36.5377 47.8516 36.6158C48.4766 36.6809 49.0365 36.8893 49.5312 37.2408C49.6875 38.3867 49.8307 39.5325 49.9609 40.6783L50.2148 40.7369L50.2734 40.4244L50.1758 39.7799L50.332 39.1549V38.6666C50.2539 37.8593 50.1302 37.0846 49.9609 36.3424C50.0651 36.095 50.0977 35.8086 50.0586 35.483C49.9935 35.0664 49.8372 34.6953 49.5898 34.3698L49.2578 34.2135C49.1536 34.7083 48.9583 35.151 48.6719 35.5416L48.2422 35.6393C47.9688 35.47 47.7604 35.2226 47.6172 34.8971C47.474 34.5455 47.3633 34.1614 47.2852 33.7448C47.3242 33.4583 47.4154 33.1718 47.5586 32.8854H47.3438C47.1354 33.3151 46.8815 33.7187 46.582 34.0963C46.2826 34.4609 46.0417 34.8515 45.8594 35.2682L45.6445 35.3268L44.7461 34.3698C44.3164 35.8541 43.9258 37.3255 43.5742 38.7838C43.2227 40.2291 42.6888 41.6224 41.9727 42.9635L41.2305 43.1198L40.7422 42.9635L39.7852 41.9674C39.7591 41.5377 39.694 41.1276 39.5898 40.7369L39.6875 40.2096L39.8438 39.9948L40.2734 40.2096C41.0156 38.582 41.582 36.9023 41.9727 35.1705C42.3633 33.4388 42.6302 31.6679 42.7734 29.858C42.7734 29.4023 42.6302 29.0182 42.3438 28.7057L42.0898 28.5885L41.9141 28.1198C42.487 28.1198 43.0273 28.1979 43.5352 28.3541C44.056 28.5104 44.5443 28.7643 45 29.1158L45.1758 29.9752C45.944 29.7929 46.6341 29.4739 47.2461 29.0182L47.2852 28.7448L47.0898 27.1627L46.7578 27.1041C46.4062 27.2474 46.0547 27.3711 45.7031 27.4752L45.5859 27.6901L45 27.8463L44.7852 27.9635L44.4727 27.4166L43.5742 26.9479L42.832 26.0885L42.7148 25.3463L42.9297 25.3073L43.6328 25.6198L44.0039 26.0494H44.5312C45.4167 25.8281 46.2891 25.5677 47.1484 25.2682C48.0208 24.9687 48.8672 24.6106 49.6875 24.194L50.0586 23.8619L50.5469 23.6666L50.7031 23.3346C50.9115 23.3086 51.0547 23.2044 51.1328 23.0221L51.9141 22.7096L52.1875 22.7487L52.4023 22.7096C53.1055 22.957 53.8086 23.2304 54.5117 23.5299C55.2279 23.8294 55.944 24.1028 56.6602 24.3502C56.8294 24.6627 56.9141 25.0143 56.9141 25.4049C56.8099 25.6523 56.6341 25.8281 56.3867 25.9323C56.0352 26.0364 55.6641 26.108 55.2734 26.1471L55.0586 27.1627C55.5143 27.332 55.9831 27.4817 56.4648 27.6119C56.9466 27.7291 57.4154 27.8593 57.8711 28.0026V28.3346C57.4805 28.608 57.0703 28.8294 56.6406 28.9987C56.224 29.1549 55.7682 29.2461 55.2734 29.2721L55.2148 30.0729C55.8919 30.5026 56.5625 30.9453 57.2266 31.401C57.9036 31.8567 58.5807 32.332 59.2578 32.8268L59.3164 33.2565L59.043 33.4127C58.6914 33.4908 58.3594 33.5104 58.0469 33.4713C57.474 33.4062 56.9596 33.2109 56.5039 32.8854L55.4297 31.8307C55.3255 32.3255 55.3451 32.8203 55.4883 33.3151C55.4492 34.0573 55.2539 34.7474 54.9023 35.3854L57.1289 36.1862L57.2461 36.5963C56.8945 36.8437 56.4844 36.9869 56.0156 37.026L54.4727 36.8698C53.6263 36.9088 52.8841 37.2083 52.2461 37.7682L52.1875 37.983L52.3438 38.4518L52.2852 38.9401C52.4023 39.2526 52.4414 39.5846 52.4023 39.9362L52.3438 40.3073L52.6172 40.4244C53.2161 40.3854 53.7826 40.2226 54.3164 39.9362L54.5898 39.9948C55.1107 40.0729 55.5924 40.164 56.0352 40.2682C56.4909 40.3724 56.9466 40.457 57.4023 40.5221L57.6172 40.4244C58.151 40.8671 58.75 41.2187 59.4141 41.4791C59.5964 41.6224 59.6875 41.7981 59.6875 42.0065C59.6875 42.3971 59.5638 42.7552 59.3164 43.0807L58.5742 43.2369H57.5586ZM52.6172 35.7565C53.0078 35.6523 53.3789 35.4765 53.7305 35.2291L53.7891 34.9557C53.4245 34.3958 53.2096 33.7578 53.1445 33.0416L53.3008 32.7291L53.6328 32.6705V31.7135L53.5742 31.4596L53.2422 31.6158C53.112 32.0716 52.9297 32.5078 52.6953 32.9244C52.4609 33.3281 52.2201 33.7382 51.9727 34.1549L51.7578 34.4283L52.1875 34.7018L52.4023 35.8151L52.6172 35.7565ZM51.1719 34.1549C50.7552 33.6992 50.5794 33.1914 50.6445 32.6315L50.7031 32.4166L49.9609 32.5143L49.4727 32.2994H49.1602C49.1732 32.8333 49.2253 33.3671 49.3164 33.901L50 33.9401L51.1719 34.1549ZM45.3711 33.5299C45.6966 33.1393 45.9831 32.7487 46.2305 32.358C46.4779 31.9674 46.6732 31.5442 46.8164 31.0885L46.6016 31.0299C46.1068 31.2122 45.6315 31.4075 45.1758 31.6158L44.9609 31.5573L44.7461 33.1588L44.8438 33.4127L45.3711 33.5299ZM51.2891 32.1432C51.7057 31.4791 52.0768 30.789 52.4023 30.0729C51.9727 29.8645 51.5625 29.5976 51.1719 29.2721C51.1458 29.4934 51.0417 29.6888 50.8594 29.858C50.3255 30.0403 49.7786 30.2031 49.2188 30.3463L49.1602 30.7174L49.2578 31.1862L50.7031 31.7721L50.8594 32.2018L51.2891 32.1432ZM50.918 28.9596L50.7031 28.1588C51.0547 28.4843 51.4258 28.6666 51.8164 28.7057C52.4154 28.6276 52.9492 28.4323 53.418 28.1198L53.5156 27.4752L53.1445 25.9908C52.8971 25.8867 52.6107 25.8541 52.2852 25.8932C51.7253 25.9583 51.1849 26.0625 50.6641 26.2057C50.1562 26.3489 49.6354 26.4921 49.1016 26.6354L49.043 26.8502L49.2188 27.319C49.0755 27.5273 49.0169 27.7552 49.043 28.0026L49.1016 28.2174L49.043 28.4908C49.6159 28.6992 50.2409 28.8554 50.918 28.9596ZM63.0859 43.9401C62.6562 43.875 62.2266 43.7838 61.7969 43.6666L61.543 43.7252L60.625 43.1393L60.7812 42.8268L60.4102 42.6119C60.6315 42.5729 60.7747 42.4622 60.8398 42.2799L60.5859 41.9674L60.957 41.6549C61.0612 40.9778 61.3151 40.3463 61.7188 39.7604C62.1354 39.1744 62.5195 38.595 62.8711 38.0221L63.1836 39.1354C63.0794 39.5911 63.0794 40.0533 63.1836 40.5221H63.6133C64.2904 40.3528 64.8958 40.0338 65.4297 39.5651L67.0898 37.1627C66.6211 36.7721 66.0938 36.5052 65.5078 36.3619C64.9219 36.2187 64.3424 36.0625 63.7695 35.8932C63.3789 34.539 63.0339 33.1718 62.7344 31.7916C62.4349 30.3984 61.9987 29.0638 61.4258 27.7877H61.7969C62.5521 27.9961 63.2812 28.2434 63.9844 28.5299C64.8438 28.3867 65.6771 28.2369 66.4844 28.0807C67.3047 27.9114 68.112 27.7031 68.9062 27.4557L68.9453 27.2408C68.9193 26.7461 68.8607 26.2448 68.7695 25.7369C68.6784 25.2161 68.5286 24.7408 68.3203 24.3112L68.1055 24.2135L67.9883 24.0377L67.7734 23.3541L68.3203 23.2369L68.2617 22.983C68.8477 23.0481 69.4336 23.0481 70.0195 22.983L72.0898 23.9987L72.2656 24.8971L71.9922 25.1705C71.8099 25.7304 71.6341 26.2968 71.4648 26.8698L71.8359 26.9869L72.9492 26.5963C73.1315 26.388 73.2227 26.1601 73.2227 25.9127L73.4375 25.8151L74.2773 25.6979C74.7461 25.7369 75.1888 25.8281 75.6055 25.9713C76.0352 26.1145 76.4453 26.2903 76.8359 26.4987C77.4609 26.9934 78.0534 27.5273 78.6133 28.1002C78.9258 28.6992 79.1862 29.3242 79.3945 29.9752L78.7109 30.5612L77.9688 30.7565L77.6367 30.7174L76.7969 31.3619C76.7578 31.7135 76.5951 32.013 76.3086 32.2604L76.0352 32.358C75.8659 32.6836 75.7096 33.0221 75.5664 33.3737L75.293 33.5885L74.9805 34.0768L74.7656 34.1744L74.4531 34.3893C74.2708 34.6367 74.0169 34.7474 73.6914 34.7213L73.2227 34.5455L73.0078 34.0768H72.793L72.6367 33.8033L71.7188 33.7448C71.4062 33.7448 71.1263 33.8359 70.8789 34.0182C70.7617 34.4479 70.599 34.858 70.3906 35.2487L70.4492 35.5612C70.2279 35.8476 70.1172 36.1862 70.1172 36.5768C71.9661 37.5013 73.776 38.3932 75.5469 39.2526C77.3307 40.0989 79.2188 40.7174 81.2109 41.108L81.2695 41.694C81.1654 41.8372 81.1328 42.0195 81.1719 42.2408L80.8398 42.5533L80.6836 42.7096C80.0456 42.9309 79.3945 43.0937 78.7305 43.1979C78.0794 43.302 77.3958 43.3867 76.6797 43.4518C76.1198 43.4257 75.5794 43.3151 75.0586 43.1198C74.5378 42.9244 74.0495 42.664 73.5938 42.3385C73.2422 41.9088 72.9362 41.4661 72.6758 41.0104C72.2852 40.6458 71.888 40.3138 71.4844 40.0143C71.0807 39.7148 70.6836 39.4023 70.293 39.0768L69.7461 38.8229L69.5312 38.5494H69.2188C68.8672 39.1614 68.5091 39.7669 68.1445 40.3658L67.5586 41.069L67.3047 41.4791L67.0312 41.6549L66.875 42.026L66.1719 42.4557L66.0742 42.651C65.6055 43.0156 65.1237 43.2825 64.6289 43.4518C64.1341 43.6341 63.6198 43.7968 63.0859 43.9401ZM67.9883 35.5612L68.3203 34.3893H67.9297L66.2891 34.8776L66.1719 35.1315C66.7448 35.3528 67.3503 35.4961 67.9883 35.5612ZM68.7891 32.9049L68.8477 31.6158L69.0039 29.5455L68.7891 29.4283C68.2552 29.5716 67.6953 29.6627 67.1094 29.7018C66.5234 29.7408 65.9831 29.8645 65.4883 30.0729L65.3711 30.6002C65.4883 31.108 65.5794 31.6028 65.6445 32.0846C65.7096 32.5533 65.8724 32.983 66.1328 33.3737C67.0573 33.2044 67.9427 33.0481 68.7891 32.9049ZM73.1641 32.319C73.3464 31.707 73.5417 31.1276 73.75 30.5807C73.9583 30.0338 74.1732 29.4739 74.3945 28.901L74.2383 28.5885L73.6914 28.4713C72.9492 28.6145 72.207 28.7903 71.4648 28.9987C71.3477 29.5325 71.2565 30.0859 71.1914 30.6588C71.1263 31.2317 71.0742 31.7981 71.0352 32.358L71.25 32.4752C71.6406 32.332 72.0508 32.2604 72.4805 32.2604L73.1641 32.319ZM81.3867 43.608L81.0547 43.4518L80.4102 43.5104L79.9414 43.3541L80 43.0221L79.668 42.5924C79.9544 42.4101 80.2604 42.2864 80.5859 42.2213L81.543 42.4948L83.3984 42.2799L83.457 41.8893C83.3529 41.3945 83.3008 40.8606 83.3008 40.2877C83.5221 38.5299 83.5417 36.7786 83.3594 35.0338C83.2812 34.7864 83.2617 34.5716 83.3008 34.3893C83.2617 32.6836 83.2617 30.9713 83.3008 29.2526L83.1445 28.608L83.3594 28.3932H83.8281C84.3229 28.5364 84.8438 28.6341 85.3906 28.6862C85.9505 28.7382 86.4453 28.927 86.875 29.2526L86.9727 29.6237L86.6016 29.7213C86.4583 30.2552 86.3867 30.8281 86.3867 31.4401C86.4909 31.7265 86.5299 32.0325 86.5039 32.358L86.4453 33.2174L86.5039 33.4323C86.3867 34.0312 86.3151 34.6562 86.2891 35.3073L86.3867 36.1666L86.2891 36.4791C86.2891 37.052 86.3607 37.6054 86.5039 38.1393C86.4648 39.6627 86.4648 41.1862 86.5039 42.7096L86.3867 43.0221L86.4453 43.2369H86.1328L85.957 43.0807C85.3581 43.4062 84.6875 43.5494 83.9453 43.5104L83.5156 43.3932L83.2422 43.4518C82.526 43.4127 81.9076 43.4648 81.3867 43.608Z" fill="black"/>
<path d="M13.9204 22.8163C13.7427 22.647 13.5396 22.5751 13.311 22.6005L13.0571 22.6512L12.8413 22.5243C12.672 21.9488 12.6001 21.3309 12.6255 20.6708C12.9132 20.2984 13.0402 19.8667 13.0063 19.3759L13.0571 17.7382C12.9386 17.0526 12.8582 16.3586 12.8159 15.6561C12.7736 14.9537 12.7397 14.2427 12.7144 13.5233L12.4478 13.4344L12.3208 13.1805L11.978 13.0536C11.7749 13.2483 11.631 13.4598 11.5464 13.6884L11.2417 13.7391L10.645 13.3456C10.3826 13.0578 10.2261 12.7447 10.1753 12.4061L10.2515 12.1395L10.1753 11.7587C10.2853 11.5894 10.3403 11.3863 10.3403 11.1493L10.2134 11.0223L10.3403 10.9335L10.3022 10.8065L10.4673 10.4637H10.6069L10.772 10.5145L11.0386 10.4637L11.5464 10.6796L11.6733 10.6415L11.8892 10.6796L12.4097 10.4637L12.5366 10.2479L12.8413 10.3368L13.0571 10.2098L13.146 9.94324C13.7469 9.68933 14.3774 9.49044 15.0376 9.34656C15.5539 9.46505 16.0278 9.65125 16.4595 9.90515C16.5441 10.2522 16.7007 10.5822 16.9292 10.8954L16.8403 11.0223L17.0181 11.0731C17.1281 11.3016 17.1704 11.5598 17.145 11.8475L17.0562 12.0126L16.2817 11.9237L15.5581 12.1014L15.4185 12.0634C15.1899 12.0887 15.0037 12.203 14.8599 12.4061C14.7498 12.8378 14.6525 13.2821 14.5679 13.7391L14.606 13.8661C14.5213 14.0354 14.479 14.2385 14.479 14.4755C14.6229 14.7886 14.6779 15.1441 14.644 15.5419L14.5679 16.4052C14.5933 16.9214 14.6567 17.425 14.7583 17.9159C14.8599 18.3983 14.9106 18.8977 14.9106 19.4139C14.8175 19.6763 14.7879 19.9514 14.8218 20.2391L14.9106 20.455C14.8768 21.0305 14.7752 21.5891 14.606 22.1307L14.6948 22.6005L13.9204 22.8163ZM17.8306 22.6893L17.3228 22.4735L17.272 22.3466L16.8911 22.0546L16.8022 21.2294C17.1408 20.7469 17.4709 20.2603 17.7925 19.7694C17.784 18.8807 17.784 17.9963 17.7925 17.1161L17.8306 16.9003C17.6867 16.3586 17.5005 15.8169 17.272 15.2753L16.8911 15.0975L16.5864 14.3739L16.7515 13.6884H16.8911L17.1069 13.7645C17.2762 13.6545 17.4751 13.5826 17.7036 13.5487L18.0972 13.5995L18.2241 13.5106L18.605 13.6884L18.6938 13.9042C18.8377 13.9042 18.952 13.9592 19.0366 14.0692L19.4302 14.5009C19.7433 14.3824 20.0438 14.3104 20.3315 14.285L20.7124 14.3739L20.5854 14.0311L21.1948 13.9803C21.6519 14.0142 22.0369 14.1877 22.3501 14.5009L22.7817 15.0087L23.5181 15.5673L23.5562 15.9608H23.3911L23.0483 15.8339C23.2176 16.0285 23.2853 16.2401 23.2515 16.4686L23.0864 16.5194L22.9087 16.4686C22.9087 16.6971 22.8537 16.9003 22.7437 17.078L22.6167 17.1161L22.1343 16.7352L21.7915 16.3925C21.5376 16.2147 21.2498 16.1132 20.9282 16.0878L20.1157 16.4305C19.828 16.8283 19.6248 17.2642 19.5063 17.7382C19.3963 18.2121 19.3117 18.6903 19.2524 19.1727L19.3032 19.3505C19.1593 19.9175 19.0282 20.5015 18.9097 21.1024L18.9985 21.3182L18.9478 21.4452C19.0916 21.6483 19.1636 21.8938 19.1636 22.1815L18.8716 22.3466L18.3892 22.6512L18.1733 22.6132L17.8306 22.6893ZM26.6411 22.6512L25.397 22.4354L25.105 22.4862L24.7622 22.1434L24.6226 21.3817L24.9653 21.2928L25.0542 20.9501L25.1812 20.912C25.4097 20.5142 25.5239 20.0741 25.5239 19.5917C25.6678 19.1008 25.7736 18.6226 25.8413 18.1571C25.9175 17.6916 25.9259 17.2007 25.8667 16.6844L25.5747 16.5194L25.3589 16.6083L25.3208 16.1766C25.0584 16.1512 24.8003 16.1089 24.5464 16.0497L24.2798 16.0878L24.3687 15.745L24.2417 15.7069L24.2798 15.1991L24.0259 15.0214L24.5464 15.1102C24.8003 14.8563 25.0415 14.5855 25.27 14.2977L25.397 13.955L26.0063 13.8788L26.1714 13.955C26.146 13.8195 26.1883 13.7518 26.2983 13.7518C26.6707 13.8619 27.0135 14.01 27.3267 14.1962C27.6483 14.3824 27.9657 14.5897 28.2788 14.8182L28.3169 14.9452L28.0122 15.1991C27.7583 15.7662 27.6187 16.3882 27.5933 17.0653L27.6313 17.243C27.5213 17.5816 27.4663 17.9371 27.4663 18.3094L27.5044 18.5634L27.4155 18.9061L27.4663 19.1219L27.4155 19.3251C27.5594 19.9852 27.644 20.6538 27.6694 21.3309L27.5933 21.6737L27.9741 21.8895L28.063 22.2323L27.9741 22.5243C27.6356 22.3804 27.3055 22.3254 26.9839 22.3593L26.8569 22.3973L26.7681 22.6132L26.6411 22.6512ZM25.5239 12.8505L25.0542 12.6854C25.1981 12.1691 25.2996 11.6698 25.3589 11.1874L25.27 10.9335L25.397 10.8954L25.5747 10.5526L25.7397 10.4637L25.8667 10.1718L26.9839 10.0829L28.1519 10.3368L28.1899 11.0604C27.8853 11.4328 27.6144 11.8179 27.3774 12.2157C27.1489 12.3596 26.9035 12.4315 26.6411 12.4315L26.2603 12.3807C26.0571 12.4654 25.8709 12.5669 25.7017 12.6854L25.5239 12.8505ZM30.0562 22.8671L29.6753 22.4735L29.6245 22.0546C29.8276 21.8514 29.9715 21.6356 30.0562 21.4071L30.272 21.1913C30.4497 20.565 30.564 19.9218 30.6147 19.2616C30.674 18.6014 30.7629 17.9582 30.8813 17.3319C30.5936 16.6718 30.3608 15.9989 30.1831 15.3134L29.9673 15.2753C29.8826 15.0129 29.8276 14.7378 29.8022 14.4501L29.9292 14.2469L29.8911 14.1073L30.1069 14.0311L30.2339 14.0692V13.8153L30.4878 13.9423L30.6147 14.0692L30.7417 13.7645L31.2241 13.5487L31.313 13.8153L31.4399 13.8534L31.478 13.7264L31.4399 14.0692L31.5669 14.1073L31.6938 13.9042L32.1636 13.6376L32.3032 13.6884L32.4302 13.6376L32.5571 13.6884L32.8999 13.2567C33.1284 13.1721 33.3739 13.1298 33.6362 13.1298L33.7632 13.1678L33.9282 13.1298C34.1906 13.3583 34.508 13.4556 34.8804 13.4218L35.3501 13.8534L35.6548 14.0692C35.9425 14.4416 36.1711 14.8267 36.3403 15.2245C36.5688 15.6307 36.7 16.0455 36.7339 16.4686L36.6831 16.6464L36.772 16.9384L36.4673 17.1161C36.1287 17.5731 35.8875 18.0598 35.7437 18.576L35.5659 18.703V18.9188C35.1089 19.1473 34.6349 19.3632 34.144 19.5663C33.6616 19.7609 33.1877 19.9598 32.7222 20.163L32.5571 20.0741L32.3794 19.9471L32.1636 20.328L32.0366 20.4169L31.9478 20.7216L31.8208 21.2802L31.8716 21.4452L31.6938 22.2196C31.1776 22.5328 30.6317 22.7486 30.0562 22.8671ZM33.1538 18.1444C33.4754 17.9159 33.8055 17.7001 34.144 17.4969L34.271 17.1161L34.2329 16.9891L34.3599 16.0878C34.0213 15.8254 33.6362 15.6688 33.2046 15.618C32.8322 16.0412 32.6714 16.5702 32.7222 17.205C32.6968 17.5774 32.7687 17.9201 32.938 18.2333L33.1538 18.1444ZM39.9204 22.8163C39.7427 22.647 39.5396 22.5751 39.311 22.6005L39.0571 22.6512L38.8413 22.5243C38.672 21.9488 38.6001 21.3309 38.6255 20.6708C38.9132 20.2984 39.0402 19.8667 39.0063 19.3759L39.0571 17.7382C38.9386 17.0526 38.8582 16.3586 38.8159 15.6561C38.7736 14.9537 38.7397 14.2427 38.7144 13.5233L38.4478 13.4344L38.3208 13.1805L37.978 13.0536C37.7749 13.2483 37.631 13.4598 37.5464 13.6884L37.2417 13.7391L36.645 13.3456C36.3826 13.0578 36.2261 12.7447 36.1753 12.4061L36.2515 12.1395L36.1753 11.7587C36.2853 11.5894 36.3403 11.3863 36.3403 11.1493L36.2134 11.0223L36.3403 10.9335L36.3022 10.8065L36.4673 10.4637H36.6069L36.772 10.5145L37.0386 10.4637L37.5464 10.6796L37.6733 10.6415L37.8892 10.6796L38.4097 10.4637L38.5366 10.2479L38.8413 10.3368L39.0571 10.2098L39.146 9.94324C39.7469 9.68933 40.3774 9.49044 41.0376 9.34656C41.5539 9.46505 42.0278 9.65125 42.4595 9.90515C42.5441 10.2522 42.7007 10.5822 42.9292 10.8954L42.8403 11.0223L43.0181 11.0731C43.1281 11.3016 43.1704 11.5598 43.145 11.8475L43.0562 12.0126L42.2817 11.9237L41.5581 12.1014L41.4185 12.0634C41.1899 12.0887 41.0037 12.203 40.8599 12.4061C40.7498 12.8378 40.6525 13.2821 40.5679 13.7391L40.606 13.8661C40.5213 14.0354 40.479 14.2385 40.479 14.4755C40.6229 14.7886 40.6779 15.1441 40.644 15.5419L40.5679 16.4052C40.5933 16.9214 40.6567 17.425 40.7583 17.9159C40.8599 18.3983 40.9106 18.8977 40.9106 19.4139C40.8175 19.6763 40.7879 19.9514 40.8218 20.2391L40.9106 20.455C40.8768 21.0305 40.7752 21.5891 40.606 22.1307L40.6948 22.6005L39.9204 22.8163ZM46.1538 22.4354C45.4683 22.2323 44.8547 21.8895 44.313 21.4071C43.966 21.1193 43.6825 20.7893 43.4624 20.4169C43.2508 20.0445 43.0138 19.689 42.7515 19.3505L42.7134 19.1346L42.9292 18.9569L42.8022 18.9188V18.6141L42.9673 18.576L42.9292 18.3983C43.0477 18.0598 43.1408 17.7128 43.2085 17.3573C43.2847 16.9934 43.3651 16.6421 43.4497 16.3036L43.3228 16.2528L43.272 15.9989C43.3905 15.745 43.5047 15.5038 43.6147 15.2753L43.7417 15.2245L43.7925 15.3514L43.6147 15.6561L43.7036 15.8339L43.8306 15.745L44.0464 15.618L44.313 14.9706L44.478 14.8436L44.5669 14.4501C44.6515 14.2808 44.7531 14.1242 44.8716 13.9803L45.2144 14.0692L45.4302 13.9803L45.5063 14.1073L45.938 13.9423L46.0776 13.9803L46.2935 13.7645L46.6362 13.7264L48.4009 14.3739C48.4517 14.5686 48.5236 14.7675 48.6167 14.9706L48.7437 15.0087C48.9976 15.5249 49.1668 16.0708 49.2515 16.6464L49.2134 16.7733C49.3319 17.0865 49.4165 17.4292 49.4673 17.8016L49.4292 17.9286C49.5985 18.2756 49.6704 18.6607 49.645 19.0839C49.4419 19.5155 49.1838 19.9302 48.8706 20.328L48.3501 20.7216L48.1851 21.0262L47.5757 21.496L47.4487 21.7118C47.161 21.9065 46.8436 22.063 46.4966 22.1815L46.1538 22.4354ZM46.0776 20.163C46.45 19.7652 46.7843 19.3462 47.0806 18.9061C47.3853 18.4576 47.5503 17.9624 47.5757 17.4208L47.0679 16.2528L46.8521 16.2147C46.4797 16.4686 46.1326 16.7818 45.811 17.1542L45.7729 17.3319L45.646 17.4208C45.4175 17.7593 45.244 18.1148 45.1255 18.4872L44.9985 18.4491L44.9097 18.9188L45.2524 19.1727C45.3963 19.5705 45.6714 19.9006 46.0776 20.163ZM44.6938 18.2333L44.8716 17.4969L45.0874 17.4589L45.2144 16.9003L45.1636 16.7733C45.0535 17.0018 44.897 17.1711 44.6938 17.2811L44.5669 17.243L44.3892 17.37L44.3511 18.1444L44.3892 18.2714L44.6938 18.2333Z" fill="#4388FF"/>
</svg>
